<?xml version="1.0" standalone="no"?>
<!DOCTYPE svg PUBLIC "-//W3C//DTD SVG 20010904//EN"
 "http://www.w3.org/TR/2001/REC-SVG-20010904/DTD/svg10.dtd">
<svg version="1.0" xmlns="http://www.w3.org/2000/svg"
 width="2000.000000pt" height="419.000000pt" viewBox="0 0 2000.000000 419.000000"
 preserveAspectRatio="xMidYMid meet">

<g transform="translate(0.000000,419.000000) scale(0.100000,-0.100000)"
fill="#000000" stroke="none">
<path d="M3888 4180 c-391 -41 -753 -202 -1010 -448 -128 -124 -205 -228 -279
-377 -130 -263 -159 -552 -84 -838 149 -575 699 -1031 1388 -1152 148 -27 333
-37 466 -26 l124 10 88 -81 c49 -45 124 -108 167 -140 99 -74 292 -171 407
-204 161 -46 337 -42 368 8 9 13 -4 30 -72 94 -178 167 -261 325 -261 495 l0
64 62 40 c324 209 546 544 599 905 16 114 6 331 -21 440 -132 537 -584 970
-1189 1141 -225 63 -535 91 -753 69z m150 -506 l73 -6 -7 -124 -7 -123 74 5
c238 16 570 58 640 79 14 5 17 -8 23 -87 4 -51 9 -107 12 -125 5 -28 3 -32
-23 -37 -93 -19 -360 -45 -635 -62 l-108 -6 0 -105 c0 -95 2 -104 18 -99 36
11 160 26 224 26 l67 0 7 45 c5 36 10 45 23 41 9 -3 64 -17 124 -32 l108 -27
-3 -35 c-3 -34 -1 -35 50 -53 231 -79 364 -262 364 -499 0 -261 -153 -443
-456 -545 -41 -14 -82 -25 -91 -25 -19 0 -111 188 -98 200 4 4 33 15 63 25
143 46 241 119 287 214 55 111 27 262 -63 340 -37 33 -130 84 -144 79 -4 -2
-27 -39 -50 -83 -68 -131 -149 -243 -250 -348 l-95 -99 37 -69 36 -68 -102
-65 c-57 -36 -105 -66 -107 -66 -2 0 -20 29 -39 65 -19 36 -39 63 -45 61 -142
-64 -251 -90 -346 -83 -170 14 -269 127 -269 307 0 230 164 454 430 585 l75
37 -3 134 -3 134 -198 0 -198 0 -6 68 c-4 37 -7 90 -7 118 l0 51 208 -1 207
-1 3 125 c1 69 4 131 7 138 4 11 19 13 63 8 31 -3 90 -8 130 -12z"/>
<path d="M4240 2784 c-14 -2 -56 -9 -93 -15 l-69 -11 6 -57 c3 -31 8 -91 12
-133 3 -43 9 -78 13 -78 21 0 118 133 165 227 38 76 37 77 -34 67z"/>
<path d="M3774 2632 c-67 -44 -143 -123 -170 -179 -10 -21 -20 -68 -22 -104
-4 -59 -1 -69 21 -95 23 -26 31 -29 84 -29 44 1 75 9 131 35 l74 34 -5 35 c-3
20 -14 105 -23 189 -10 83 -21 152 -25 152 -3 0 -32 -17 -65 -38z"/>
<path d="M18670 2455 l0 -1155 140 0 140 0 2 416 3 416 413 -426 c228 -234
417 -426 420 -426 4 0 50 40 102 89 l95 90 -382 383 -382 383 309 274 c171
151 310 277 310 280 0 3 -36 44 -79 91 l-79 85 -39 -36 c-118 -110 -683 -619
-687 -619 -3 0 -6 295 -6 655 l0 655 -140 0 -140 0 0 -1155z"/>
<path d="M8182 3573 c-87 -42 -123 -170 -76 -264 7 -14 29 -40 48 -57 117
-102 298 -39 320 112 13 86 -32 174 -108 210 -44 21 -141 20 -184 -1z"/>
<path d="M16095 3576 c-100 -44 -136 -193 -69 -288 40 -57 94 -83 170 -83 49
0 69 6 101 27 113 75 110 256 -5 329 -38 24 -56 29 -106 29 -34 -1 -75 -7 -91
-14z"/>
<path d="M6580 2395 l0 -1095 648 2 647 3 0 130 0 130 -502 3 -503 2 0 960 0
960 -145 0 -145 0 0 -1095z"/>
<path d="M14485 3478 c-3 -7 -4 -499 -3 -1093 l3 -1080 648 -3 647 -2 0 135 0
135 -500 0 -500 0 0 960 0 960 -145 0 c-107 0 -147 -3 -150 -12z"/>
<path d="M1635 3294 c-16 -2 -70 -9 -120 -15 -273 -34 -579 -149 -816 -307
-696 -466 -884 -1269 -442 -1884 74 -103 236 -259 345 -333 l88 -59 0 -75 c0
-159 -82 -315 -247 -471 -109 -103 -112 -116 -32 -137 61 -16 122 -16 220 2
225 39 455 162 657 351 l93 87 257 1 c272 2 329 9 534 61 136 35 224 68 363
135 288 139 496 322 677 595 l79 119 -37 21 c-213 118 -339 211 -484 355 -138
138 -229 263 -310 425 -114 229 -155 406 -155 665 1 148 4 176 29 273 15 60
25 111 23 114 -9 9 -113 33 -233 54 -113 19 -411 34 -489 23z m220 -586 c61
-215 475 -1703 475 -1709 0 -5 -79 -9 -175 -9 l-174 0 -11 38 c-6 20 -35 125
-64 232 l-52 195 -237 3 -236 2 -10 -37 c-67 -255 -111 -424 -111 -428 0 -3
-76 -5 -170 -5 -117 0 -170 3 -170 11 0 14 489 1739 496 1751 3 4 99 8 214 8
l209 0 16 -52z"/>
<path d="M1576 2308 c-21 -95 -62 -266 -92 -379 -30 -113 -54 -209 -54 -213 0
-3 83 -6 185 -6 130 0 185 3 185 11 0 6 -25 104 -55 218 -30 113 -70 280 -90
371 -20 90 -38 166 -39 167 -2 2 -20 -75 -40 -169z"/>
<path d="M9572 2940 c-40 -11 -95 -31 -123 -46 -70 -38 -167 -122 -214 -183
l-40 -52 -3 130 -3 131 -134 0 -135 0 0 -810 0 -810 140 0 140 0 0 539 0 538
49 64 c88 118 216 219 316 253 64 22 169 23 233 2 58 -20 121 -76 152 -135 48
-96 50 -119 50 -708 l0 -553 140 0 141 0 -3 613 -3 612 -27 80 c-46 135 -132
245 -231 296 -112 58 -307 75 -445 39z"/>
<path d="M11250 2944 c-105 -22 -236 -93 -324 -175 -180 -168 -266 -379 -266
-654 0 -202 41 -354 134 -493 115 -174 293 -285 501 -313 184 -24 354 29 494
157 l41 36 0 -148 c0 -212 -25 -305 -107 -395 -95 -105 -275 -155 -462 -129
-100 14 -174 40 -258 91 l-62 37 -47 -111 c-25 -62 -48 -117 -51 -123 -2 -6
25 -24 60 -42 186 -90 415 -122 627 -88 242 39 402 150 495 341 79 164 84 240
85 1213 l0 772 -130 0 -130 0 0 -60 0 -60 -47 34 c-158 112 -359 152 -553 110z
m360 -250 c59 -18 138 -55 183 -86 l27 -19 0 -429 0 -428 -56 -50 c-322 -288
-780 -68 -819 393 -26 307 131 566 383 630 69 18 203 13 282 -11z"/>
<path d="M13100 2946 c-156 -33 -273 -93 -382 -195 -120 -112 -201 -259 -235
-430 -21 -106 -20 -314 2 -416 58 -274 237 -489 484 -584 112 -43 198 -55 347
-48 148 6 222 25 349 90 100 52 233 179 293 282 95 162 137 379 114 586 -25
218 -91 361 -237 505 -78 78 -106 99 -186 137 -52 25 -121 53 -154 62 -83 22
-310 29 -395 11z m309 -255 c175 -54 324 -231 367 -433 23 -107 14 -278 -20
-383 -29 -90 -87 -186 -145 -238 -98 -89 -199 -121 -360 -115 -94 3 -114 7
-175 36 -100 47 -200 150 -254 262 -122 254 -84 575 90 752 60 62 150 112 229
127 81 16 203 12 268 -8z"/>
<path d="M17486 2944 c-103 -25 -192 -80 -293 -180 l-93 -92 0 124 0 124 -140
0 -140 0 2 -807 3 -808 140 0 140 0 3 539 2 539 40 53 c94 125 228 231 327
260 78 23 181 20 242 -7 94 -40 162 -143 181 -274 5 -40 10 -296 10 -593 l0
-523 138 3 137 3 3 530 c3 570 -2 672 -43 789 -28 80 -101 193 -148 229 -54
41 -136 78 -206 93 -83 17 -228 17 -305 -2z"/>
<path d="M8140 2110 l0 -810 140 0 140 0 0 810 0 810 -140 0 -140 0 0 -810z"/>
<path d="M16050 2110 l0 -811 138 3 137 3 3 808 2 807 -140 0 -140 0 0 -810z"/>
</g>
</svg>
